<svg width="20" height="21" viewBox="0 0 20 21" fill="none" xmlns="http://www.w3.org/2000/svg">
<path d="M13.9623 8.40882C13.9623 8.03561 13.9623 7.84819 13.8925 7.68025C13.8227 7.51231 13.6913 7.38006 13.4268 7.11557L13.2053 6.89408C12.9408 6.62959 12.8086 6.49816 12.6406 6.42838C12.4727 6.35861 12.2861 6.35861 11.9121 6.35861H11.22C10.6602 6.35861 10.3795 6.35861 10.1272 6.46327C9.87566 6.56712 9.6777 6.76508 9.28096 7.16182L2.97456 13.4682C2.37175 14.071 2.07075 14.372 1.93202 14.7079C1.83996 14.9297 1.79257 15.1675 1.79257 15.4077C1.79257 15.6478 1.83996 15.8856 1.93202 16.1074C2.07075 16.4433 2.37175 16.7443 2.97456 17.3463C3.57656 17.9491 3.87756 18.2501 4.21345 18.3889C4.43526 18.4809 4.67306 18.5283 4.91321 18.5283C5.15337 18.5283 5.39117 18.4809 5.61298 18.3889C5.94887 18.2501 6.24987 17.9491 6.85268 17.3463L13.1591 11.0399C13.555 10.6432 13.7538 10.4452 13.8576 10.1937C13.9623 9.94221 13.9623 9.66068 13.9623 9.10087V8.40882Z" stroke="#142A4B" stroke-width="1.21698" stroke-linecap="round" stroke-linejoin="round"/>
<path d="M14.0231 7.98145L17.6699 4.33375C17.7826 4.2237 17.8724 4.09237 17.9339 3.94739C17.9955 3.80241 18.0276 3.64665 18.0285 3.48914C18.0295 3.33163 17.9991 3.17551 17.9392 3.02983C17.8794 2.88414 17.7912 2.75179 17.6798 2.64044C17.5684 2.52909 17.436 2.44096 17.2902 2.38116C17.1445 2.32136 16.9884 2.29107 16.8309 2.29206C16.6734 2.29305 16.5176 2.32529 16.3727 2.38692C16.2277 2.44854 16.0964 2.53833 15.9865 2.65107L12.3396 6.29795M14.3679 3.92484L16.3962 5.95314" stroke="#142A4B" stroke-width="1.21698" stroke-linecap="round" stroke-linejoin="round"/>
<path d="M4.63206 3.11332C5.75226 3.11332 6.66036 4.02142 6.66036 5.14162C6.66036 6.26182 5.75226 7.16992 4.63206 7.16992C3.51186 7.16992 2.60376 6.26182 2.60376 5.14162C2.60376 4.02142 3.51186 3.11332 4.63206 3.11332Z" stroke="#142A4B" stroke-width="1.21698" stroke-linecap="round" stroke-linejoin="round"/>
</svg>
