<svg width="31" height="24" viewBox="0 0 31 24" fill="none" xmlns="http://www.w3.org/2000/svg">
<g clip-path="url(#clip0_548_727)">
<path d="M0 0H31V7.75H0V0Z" fill="#FF9933"/>
<path d="M0 7.75H31V15.5H0V7.75Z" fill="white"/>
<path d="M0 15.5H31V23.25H0V15.5Z" fill="#128807"/>
<path d="M15.5 14.725C17.2121 14.725 18.6 13.3371 18.6 11.625C18.6 9.91294 17.2121 8.52502 15.5 8.52502C13.7879 8.52502 12.4 9.91294 12.4 11.625C12.4 13.3371 13.7879 14.725 15.5 14.725Z" fill="#000088"/>
<path d="M15.5001 14.3375C16.9982 14.3375 18.2126 13.123 18.2126 11.625C18.2126 10.1269 16.9982 8.91248 15.5001 8.91248C14.002 8.91248 12.7876 10.1269 12.7876 11.625C12.7876 13.123 14.002 14.3375 15.5001 14.3375Z" fill="white"/>
<path d="M15.5 12.1675C15.7996 12.1675 16.0425 11.9246 16.0425 11.625C16.0425 11.3253 15.7996 11.0825 15.5 11.0825C15.2004 11.0825 14.9575 11.3253 14.9575 11.625C14.9575 11.9246 15.2004 12.1675 15.5 12.1675Z" fill="#000088"/>
<path d="M18.1712 12.1184C18.2476 12.1284 18.3177 12.0747 18.3277 11.9983C18.3378 11.9219 18.284 11.8518 18.2076 11.8418C18.1313 11.8317 18.0612 11.8855 18.0511 11.9619C18.0411 12.0382 18.0948 12.1083 18.1712 12.1184Z" fill="#000088"/>
<path d="M15.5001 14.3375L15.5931 12.71L15.5001 11.935L15.4071 12.71L15.5001 14.3375Z" fill="#000088"/>
<path d="M17.9525 12.7928C18.0237 12.8223 18.1053 12.7885 18.1348 12.7173C18.1643 12.6462 18.1305 12.5646 18.0593 12.5351C17.9881 12.5056 17.9065 12.5394 17.877 12.6106C17.8476 12.6817 17.8814 12.7634 17.9525 12.7928Z" fill="#000088"/>
<path d="M14.7981 14.2451L15.3092 12.6971L15.4199 11.9245L15.1295 12.649L14.7981 14.2451Z" fill="#000088"/>
<path d="M17.5666 13.3877C17.6277 13.4347 17.7153 13.4231 17.7622 13.362C17.8091 13.3009 17.7975 13.2133 17.7364 13.1664C17.6753 13.1195 17.5877 13.131 17.5408 13.1922C17.4939 13.2533 17.5054 13.3408 17.5666 13.3877Z" fill="#000088"/>
<path d="M14.1437 13.9741L15.038 12.6112L15.3449 11.8935L14.8769 12.5182L14.1437 13.9741Z" fill="#000088"/>
<path d="M17.0398 13.8625C17.0867 13.9237 17.1743 13.9352 17.2354 13.8883C17.2966 13.8414 17.3081 13.7538 17.2612 13.6927C17.2143 13.6316 17.1267 13.6201 17.0656 13.667C17.0045 13.7139 16.9929 13.8014 17.0398 13.8625Z" fill="#000088"/>
<path d="M13.5819 13.543L14.7985 12.458L15.2807 11.8442L14.667 12.3265L13.5819 13.543Z" fill="#000088"/>
<path d="M16.4083 14.1849C16.4378 14.256 16.5194 14.2898 16.5906 14.2604C16.6617 14.2309 16.6955 14.1493 16.6661 14.0781C16.6366 14.0069 16.555 13.9731 16.4838 14.0026C16.4126 14.0321 16.3788 14.1137 16.4083 14.1849Z" fill="#000088"/>
<path d="M13.1509 12.9813L14.6069 12.248L15.2316 11.78L14.5139 12.087L13.1509 12.9813Z" fill="#000088"/>
<path d="M15.7149 14.3327C15.7249 14.4091 15.795 14.4629 15.8714 14.4528C15.9478 14.4428 16.0015 14.3727 15.9915 14.2963C15.9814 14.2199 15.9113 14.1662 15.835 14.1762C15.7586 14.1863 15.7048 14.2564 15.7149 14.3327Z" fill="#000088"/>
<path d="M12.8799 12.3271L14.4761 11.9957L15.2006 11.7052L14.4279 11.816L12.8799 12.3271Z" fill="#000088"/>
<path d="M15.0068 14.296C14.9968 14.3724 15.0505 14.4424 15.1269 14.4525C15.2033 14.4626 15.2734 14.4088 15.2834 14.3324C15.2935 14.256 15.2397 14.1859 15.1633 14.1759C15.0869 14.1658 15.0169 14.2196 15.0068 14.296Z" fill="#000088"/>
<path d="M12.7877 11.625L14.4152 11.718L15.1902 11.625L14.4152 11.532L12.7877 11.625Z" fill="#000088"/>
<path d="M14.3323 14.0773C14.3028 14.1485 14.3366 14.2301 14.4078 14.2596C14.479 14.2891 14.5606 14.2553 14.59 14.1841C14.6195 14.1129 14.5857 14.0313 14.5146 14.0019C14.4434 13.9724 14.3618 14.0062 14.3323 14.0773Z" fill="#000088"/>
<path d="M12.88 10.9229L14.428 11.434L15.2007 11.5447L14.4761 11.2543L12.88 10.9229Z" fill="#000088"/>
<path d="M13.7374 13.6915C13.6905 13.7526 13.7021 13.8402 13.7632 13.8871C13.8243 13.934 13.9119 13.9225 13.9588 13.8613C14.0057 13.8002 13.9942 13.7127 13.933 13.6657C13.8719 13.6188 13.7843 13.6304 13.7374 13.6915Z" fill="#000088"/>
<path d="M13.1511 10.2688L14.514 11.1631L15.2317 11.4701L14.607 11.002L13.1511 10.2688Z" fill="#000088"/>
<path d="M13.2626 13.1648C13.2015 13.2117 13.1899 13.2993 13.2368 13.3604C13.2837 13.4216 13.3713 13.4331 13.4324 13.3862C13.4935 13.3393 13.5051 13.2517 13.4582 13.1906C13.4113 13.1295 13.3237 13.1179 13.2626 13.1648Z" fill="#000088"/>
<path d="M13.5822 9.70696L14.6673 10.9235L15.281 11.4058L14.7988 10.792L13.5822 9.70696Z" fill="#000088"/>
<path d="M12.9405 12.5332C12.8693 12.5627 12.8355 12.6443 12.865 12.7155C12.8945 12.7867 12.9761 12.8205 13.0473 12.791C13.1184 12.7615 13.1522 12.6799 13.1228 12.6087C13.0933 12.5375 13.0117 12.5037 12.9405 12.5332Z" fill="#000088"/>
<path d="M14.144 9.27593L14.8772 10.7319L15.3452 11.3566L15.0383 10.6389L14.144 9.27593Z" fill="#000088"/>
<path d="M12.7926 11.8397C12.7162 11.8498 12.6624 11.9199 12.6725 11.9963C12.6825 12.0726 12.7526 12.1264 12.829 12.1164C12.9054 12.1063 12.9591 12.0362 12.9491 11.9598C12.939 11.8835 12.8689 11.8297 12.7926 11.8397Z" fill="#000088"/>
<path d="M14.7982 9.00495L15.1296 10.6011L15.4201 11.3256L15.3093 10.5529L14.7982 9.00495Z" fill="#000088"/>
<path d="M12.8291 11.1316C12.7528 11.1216 12.6827 11.1753 12.6726 11.2517C12.6626 11.3281 12.7163 11.3982 12.7927 11.4082C12.8691 11.4183 12.9392 11.3645 12.9492 11.2881C12.9593 11.2118 12.9055 11.1417 12.8291 11.1316Z" fill="#000088"/>
<path d="M15.5001 8.9125L15.4071 10.54L15.5001 11.315L15.5931 10.54L15.5001 8.9125Z" fill="#000088"/>
<path d="M13.0477 10.4572C12.9765 10.4277 12.8949 10.4615 12.8654 10.5327C12.836 10.6038 12.8698 10.6854 12.9409 10.7149C13.0121 10.7444 13.0937 10.7106 13.1232 10.6394C13.1527 10.5683 13.1189 10.4866 13.0477 10.4572Z" fill="#000088"/>
<path d="M16.2021 9.0049L15.6911 10.5529L15.5803 11.3255L15.8708 10.601L16.2021 9.0049Z" fill="#000088"/>
<path d="M13.4338 9.86225C13.3727 9.81535 13.2851 9.82688 13.2382 9.888C13.1913 9.94912 13.2028 10.0367 13.264 10.0836C13.3251 10.1305 13.4127 10.119 13.4596 10.0578C13.5065 9.99672 13.4949 9.90915 13.4338 9.86225Z" fill="#000088"/>
<path d="M16.8565 9.27589L15.9623 10.6388L15.6553 11.3565L16.1233 10.7318L16.8565 9.27589Z" fill="#000088"/>
<path d="M13.9604 9.38745C13.9135 9.32633 13.8259 9.3148 13.7648 9.3617C13.7037 9.4086 13.6922 9.49617 13.7391 9.5573C13.786 9.61842 13.8735 9.62995 13.9346 9.58305C13.9958 9.53615 14.0073 9.44857 13.9604 9.38745Z" fill="#000088"/>
<path d="M17.4183 9.70697L16.2018 10.792L15.7195 11.4058L16.3333 10.9235L17.4183 9.70697Z" fill="#000088"/>
<path d="M14.592 9.06513C14.5625 8.99395 14.4809 8.96015 14.4097 8.98963C14.3385 9.01912 14.3047 9.10072 14.3342 9.1719C14.3637 9.24308 14.4453 9.27688 14.5165 9.2474C14.5876 9.21791 14.6214 9.13631 14.592 9.06513Z" fill="#000088"/>
<path d="M17.8493 10.2687L16.3934 11.002L15.7687 11.47L16.4864 11.163L17.8493 10.2687Z" fill="#000088"/>
<path d="M15.2854 8.91726C15.2753 8.84087 15.2053 8.7871 15.1289 8.79716C15.0525 8.80721 14.9987 8.87729 15.0088 8.95367C15.0188 9.03006 15.0889 9.08383 15.1653 9.07377C15.2417 9.06372 15.2954 8.99364 15.2854 8.91726Z" fill="#000088"/>
<path d="M18.1203 10.9229L16.5242 11.2543L15.7997 11.5448L16.5723 11.434L18.1203 10.9229Z" fill="#000088"/>
<path d="M15.9934 8.95402C16.0035 8.87763 15.9497 8.80756 15.8733 8.7975C15.7969 8.78745 15.7269 8.84122 15.7168 8.9176C15.7068 8.99399 15.7605 9.06406 15.8369 9.07412C15.9133 9.08417 15.9834 9.0304 15.9934 8.95402Z" fill="#000088"/>
<path d="M18.2126 11.625L16.5851 11.532L15.8101 11.625L16.5851 11.718L18.2126 11.625Z" fill="#000088"/>
<path d="M16.668 9.17265C16.6974 9.10147 16.6636 9.01987 16.5925 8.99039C16.5213 8.9609 16.4397 8.9947 16.4102 9.06588C16.3807 9.13706 16.4145 9.21866 16.4857 9.24815C16.5569 9.27763 16.6385 9.24383 16.668 9.17265Z" fill="#000088"/>
<path d="M18.1202 12.3271L16.5722 11.816L15.7996 11.7053L16.5241 11.9957L18.1202 12.3271Z" fill="#000088"/>
<path d="M17.2628 9.5585C17.3097 9.49738 17.2982 9.40981 17.2371 9.36291C17.1759 9.316 17.0884 9.32753 17.0415 9.38866C16.9946 9.44978 17.0061 9.53735 17.0672 9.58425C17.1283 9.63115 17.2159 9.61962 17.2628 9.5585Z" fill="#000088"/>
<path d="M17.8492 12.9812L16.4862 12.0869L15.7685 11.7799L16.3932 12.248L17.8492 12.9812Z" fill="#000088"/>
<path d="M17.7375 10.0852C17.7987 10.0383 17.8102 9.95068 17.7633 9.88956C17.7164 9.82844 17.6288 9.81691 17.5677 9.86381C17.5066 9.91071 17.4951 9.99828 17.542 10.0594C17.5889 10.1205 17.6764 10.1321 17.7375 10.0852Z" fill="#000088"/>
<path d="M17.418 13.543L16.333 12.3265L15.7192 11.8442L16.2015 12.458L17.418 13.543Z" fill="#000088"/>
<path d="M18.0599 10.7168C18.131 10.6873 18.1648 10.6057 18.1354 10.5345C18.1059 10.4633 18.0243 10.4295 17.9531 10.459C17.8819 10.4885 17.8481 10.5701 17.8776 10.6413C17.9071 10.7125 17.9887 10.7463 18.0599 10.7168Z" fill="#000088"/>
<path d="M16.8563 13.9741L16.123 12.5181L15.655 11.8934L15.962 12.6111L16.8563 13.9741Z" fill="#000088"/>
<path d="M18.2077 11.4103C18.2841 11.4002 18.3378 11.3301 18.3278 11.2537C18.3177 11.1774 18.2477 11.1236 18.1713 11.1336C18.0949 11.1437 18.0411 11.2138 18.0512 11.2902C18.0612 11.3665 18.1313 11.4203 18.2077 11.4103Z" fill="#000088"/>
<path d="M16.202 14.2451L15.8706 12.6489L15.5802 11.9244L15.6909 12.6971L16.202 14.2451Z" fill="#000088"/>
</g>
<defs>
<clipPath id="clip0_548_727">
<rect width="31" height="23.25" fill="white"/>
</clipPath>
</defs>
</svg>
