<svg width="13" height="84" viewBox="0 0 13 84" fill="none" xmlns="http://www.w3.org/2000/svg">
<path d="M10.4585 79.6732L10.4458 82.72L1.32418 78.1116L1.33688 75.0647L10.4585 79.6732Z" fill="white"/>
<path d="M10.4807 74.3387L10.468 77.3856L1.3464 72.7771L1.3591 69.7303L10.4807 74.3387Z" fill="white"/>
<path d="M10.5029 69.0091L10.4902 72.056L1.36861 67.4476L1.38132 64.4007L10.5029 69.0091Z" fill="white"/>
<path d="M10.5251 63.6795L10.5125 66.7264L1.39083 62.118L1.40353 59.0711L10.5251 63.6795Z" fill="white"/>
<path d="M10.5473 58.3499L10.5347 61.3968L1.41305 56.7884L1.42575 53.7415L10.5473 58.3499Z" fill="white"/>
<path d="M10.5696 53.0208L10.5569 56.0677L1.43526 51.4593L1.44797 48.4124L10.5696 53.0208Z" fill="white"/>
<path d="M10.5918 47.6912L10.5791 50.7381L1.45748 46.1297L1.47018 43.0828L10.5918 47.6912Z" fill="white"/>
<path d="M10.614 42.3616L10.6013 45.4085L1.4797 40.8001L1.4924 37.7532L10.614 42.3616Z" fill="white"/>
<path d="M10.6362 37.0321L10.6235 40.0789L1.50191 35.4705L1.51462 32.4236L10.6362 37.0321Z" fill="white"/>
<path d="M10.6584 31.7025L10.6458 34.7493L1.52413 30.1409L1.53683 27.094L10.6584 31.7025Z" fill="white"/>
<path d="M10.6806 26.3729L10.668 29.4198L1.54635 24.8113L1.55905 21.7644L10.6806 26.3729Z" fill="white"/>
<path d="M10.7029 21.0433L10.6902 24.0902L1.56856 19.4817L1.58127 16.4349L10.7029 21.0433Z" fill="white"/>
<path d="M10.7251 15.7137L10.7124 18.7606L1.59078 14.1521L1.60349 11.1053L10.7251 15.7137Z" fill="white"/>
<path d="M10.7473 10.3841L10.7346 13.431L1.613 8.82256L1.6257 5.77568L10.7473 10.3841Z" fill="white"/>
<path d="M10.7695 5.055L10.7568 8.10188L1.63521 3.49346L1.64792 0.446575L10.7695 5.055Z" fill="white"/>
</svg>
