<svg width="25" height="25" viewBox="0 0 25 25" fill="none" xmlns="http://www.w3.org/2000/svg">
<path d="M12.4109 13.3223C12.9632 13.3223 13.4109 12.8746 13.4109 12.3223C13.4109 11.77 12.9632 11.3223 12.4109 11.3223C11.8586 11.3223 11.4109 11.77 11.4109 12.3223C11.4109 12.8746 11.8586 13.3223 12.4109 13.3223Z" stroke="black" stroke-width="2" stroke-linecap="round" stroke-linejoin="round"/>
<path d="M12.4109 6.32227C12.9632 6.32227 13.4109 5.87455 13.4109 5.32227C13.4109 4.76998 12.9632 4.32227 12.4109 4.32227C11.8586 4.32227 11.4109 4.76998 11.4109 5.32227C11.4109 5.87455 11.8586 6.32227 12.4109 6.32227Z" stroke="black" stroke-width="2" stroke-linecap="round" stroke-linejoin="round"/>
<path d="M12.4109 20.3223C12.9632 20.3223 13.4109 19.8746 13.4109 19.3223C13.4109 18.77 12.9632 18.3223 12.4109 18.3223C11.8586 18.3223 11.4109 18.77 11.4109 19.3223C11.4109 19.8746 11.8586 20.3223 12.4109 20.3223Z" stroke="black" stroke-width="2" stroke-linecap="round" stroke-linejoin="round"/>
</svg>
