<svg width="84" height="12" viewBox="0 0 84 12" fill="none" xmlns="http://www.w3.org/2000/svg">
<path d="M79.6306 1.30326L82.6775 1.30323L78.1072 10.444L75.0603 10.444L79.6306 1.30326Z" fill="white"/>
<path d="M74.296 1.30326L77.3429 1.30323L72.7726 10.444L69.7257 10.444L74.296 1.30326Z" fill="white"/>
<path d="M68.9664 1.30326L72.0133 1.30323L67.443 10.444L64.3961 10.444L68.9664 1.30326Z" fill="white"/>
<path d="M63.6368 1.30326L66.6838 1.30323L62.1134 10.444L59.0665 10.444L63.6368 1.30326Z" fill="white"/>
<path d="M58.3073 1.30326L61.3542 1.30323L56.7838 10.444L53.7369 10.444L58.3073 1.30326Z" fill="white"/>
<path d="M52.9777 1.30326L56.0246 1.30323L51.4542 10.444L48.4073 10.444L52.9777 1.30326Z" fill="white"/>
<path d="M47.6481 1.30326L50.695 1.30323L46.1246 10.444L43.0777 10.444L47.6481 1.30326Z" fill="white"/>
<path d="M42.3185 1.30326L45.3654 1.30323L40.795 10.444L37.7481 10.444L42.3185 1.30326Z" fill="white"/>
<path d="M36.9889 1.30326L40.0358 1.30323L35.4655 10.444L32.4185 10.444L36.9889 1.30326Z" fill="white"/>
<path d="M31.6593 1.30326L34.7062 1.30323L30.1359 10.444L27.089 10.444L31.6593 1.30326Z" fill="white"/>
<path d="M26.3298 1.30326L29.3767 1.30323L24.8064 10.444L21.7595 10.444L26.3298 1.30326Z" fill="white"/>
<path d="M21.0001 1.30326L24.047 1.30323L19.4767 10.444L16.4298 10.444L21.0001 1.30326Z" fill="white"/>
<path d="M15.6705 1.30326L18.7174 1.30323L14.1471 10.444L11.1002 10.444L15.6705 1.30326Z" fill="white"/>
<path d="M10.3409 1.30326L13.3879 1.30323L8.8175 10.444L5.77059 10.444L10.3409 1.30326Z" fill="white"/>
<path d="M5.01148 1.30326L8.05839 1.30323L3.48803 10.444L0.441126 10.444L5.01148 1.30326Z" fill="white"/>
</svg>
